# xmcd
#
# Track frame offsets:
#	182
#	20007
#	37017
#	52380
#	65470
#	81867
#	103575
#	119812
#	140230
#	157797
#	173992
#
# Disc length: 2509 seconds
#
# Revision: 1
# Processed by: cddbd v1.5PL3 Copyright (c) Steve Scherf et al.
# Submitted via: EasyCDDAExtractor 6.5.0.1
#
DISCID=a309cb0b
DTITLE=Brooks and Dunn - Neon Moon
DYEAR=1995
DGENRE=Country
TTITLE0=Neon Moon
TTITLE1=Lost and Found
TTITLE2=She's Not the Cheatin' Kind
TTITLE3=I've Got a Lot to Learn
TTITLE4=Mexican Minutes
TTITLE5=You're Gonna Miss Me When I'm Gone
TTITLE6=That Ain't No Way to Go 
TTITLE7=Our Time is Coming
TTITLE8=She Used to be Mine
TTITLE9=I Can't Put Out This Fire
TTITLE10=I'm No Good
EXTD=
EXTT0=
EXTT1=
EXTT2=
EXTT3=
EXTT4=
EXTT5=
EXTT6=
EXTT7=
EXTT8=
EXTT9=
EXTT10=
PLAYORDER=
